mtllib steel_arrow.mtl
o arrow
v 0.000000 1.075000 -0.006250
v -0.000000 0.154812 -0.006250
v -0.004419 1.075000 -0.004419
v -0.004419 0.154812 -0.004419
v -0.006250 1.075000 0.000000
v -0.006250 0.154812 -0.000000
v -0.004419 1.075000 0.004419
v -0.004419 0.154812 0.004419
v 0.000000 1.075000 0.006250
v -0.000000 0.154812 0.006250
v 0.004419 1.075000 0.004419
v 0.004419 0.154812 0.004419
v 0.006250 1.075000 0.000000
v 0.006250 0.154812 -0.000000
v 0.004419 1.075000 -0.004419
v 0.004419 0.154812 -0.004419
v 0.001618 0.866250 0.005269
v 0.001618 0.890250 0.005269
v 0.003783 0.866250 0.004019
v 0.003783 0.890250 0.004019
v 0.003075 0.866250 0.008541
v 0.008936 0.890250 0.019693
v 0.005889 0.866250 0.006916
v 0.012616 0.890250 0.017568
v 0.003783 0.866250 -0.004019
v 0.003783 0.890250 -0.004019
v 0.001618 0.866250 -0.005269
v 0.001618 0.890250 -0.005269
v 0.005889 0.866250 -0.006916
v 0.012616 0.890250 -0.017568
v 0.003075 0.866250 -0.008541
v 0.008936 0.890250 -0.019693
v -0.009062 0.866250 0.001625
v -0.021650 0.890250 0.002125
v -0.009062 0.866250 -0.001625
v -0.021650 0.890250 -0.002125
v -0.005500 0.866250 0.001250
v -0.005500 0.890250 0.001250
v -0.005500 0.866250 -0.001250
v -0.005500 0.890250 -0.001250
v 0.001618 0.931250 0.005269
v 0.003783 0.931250 0.004019
v 0.022343 0.931250 0.032794
v 0.017259 0.931250 0.035729
v 0.003783 0.931250 -0.004019
v 0.001618 0.931250 -0.005269
v 0.017259 0.931250 -0.035729
v 0.022343 0.931250 -0.032794
v -0.039700 0.931250 0.002935
v -0.039700 0.931250 -0.002935
v -0.005500 0.931250 -0.001250
v -0.005500 0.931250 0.001250
v 0.001618 0.979250 0.005269
v 0.003783 0.979250 0.004019
v 0.029157 0.979250 0.044217
v 0.023745 0.979250 0.047342
v 0.003783 0.979250 -0.004019
v 0.001618 0.979250 -0.005269
v 0.023745 0.979250 -0.047342
v 0.029157 0.979250 -0.044217
v -0.053000 0.979250 0.003125
v -0.053000 0.979250 -0.003125
v -0.005500 0.979250 -0.001250
v -0.005500 0.979250 0.001250
v 0.001618 1.000250 0.005269
v 0.003783 1.000250 0.004019
v 0.029157 1.000250 0.044217
v 0.023745 1.000250 0.047342
v 0.003783 1.000250 -0.004019
v 0.001618 1.000250 -0.005269
v 0.023745 1.000250 -0.047342
v 0.029157 1.000250 -0.044217
v -0.053000 1.000250 0.003125
v -0.053000 1.000250 -0.003125
v -0.005500 1.000250 -0.001250
v -0.005500 1.000250 0.001250
v 0.001618 1.015250 0.005269
v 0.003783 1.015250 0.004019
v 0.022818 1.015250 0.033617
v 0.017734 1.015250 0.036552
v 0.003783 1.015250 -0.004019
v 0.001618 1.015250 -0.005269
v 0.017734 1.015250 -0.036552
v 0.022818 1.015250 -0.033617
v -0.040650 1.015250 0.002935
v -0.040650 1.015250 -0.002935
v -0.005500 1.015250 -0.001250
v -0.005500 1.015250 0.001250
v 0.001618 1.037750 0.005269
v 0.003783 1.037750 0.004019
v 0.005889 1.037750 0.006916
v 0.003075 1.037750 0.008541
v 0.003783 1.037750 -0.004019
v 0.001618 1.037750 -0.005269
v 0.003075 1.037750 -0.008541
v 0.005889 1.037750 -0.006916
v -0.009062 1.037750 0.001625
v -0.009062 1.037750 -0.001625
v -0.005500 1.037750 -0.001250
v -0.005500 1.037750 0.001250
v -0.032500 0.069346 0.000000
v -0.017500 0.069346 0.003100
v -0.017500 0.069346 -0.003600
v -0.000000 0.000000 0.000001
v -0.003062 0.030750 0.003064
v -0.003063 0.030750 -0.003061
v 0.003063 0.030750 0.003064
v 0.003062 0.030750 -0.003061
v 0.032500 0.069346 0.000000
v 0.017500 0.069346 0.003100
v 0.017500 0.069346 -0.003600
v 0.000001 0.069346 0.032752
v 0.003101 0.069346 0.017752
v -0.003599 0.069346 0.017752
v -0.000001 0.069346 -0.032498
v 0.003099 0.069346 -0.017498
v -0.003601 0.069346 -0.017498
v -0.024000 0.115349 -0.000000
v -0.009000 0.115349 0.003850
v -0.009000 0.115349 -0.003850
v -0.003851 0.115349 -0.008998
v -0.000001 0.115349 -0.023998
v 0.009000 0.115349 -0.003850
v 0.009000 0.115349 0.003850
v 0.024000 0.115349 -0.000000
v 0.000001 0.115349 0.024252
v 0.003851 0.115349 0.009252
v -0.003849 0.115349 0.009252
v 0.003849 0.115349 -0.008998
v -0.024000 0.143871 -0.000000
v -0.000001 0.143871 -0.023998
v 0.024000 0.143871 -0.000000
v 0.000001 0.143871 0.024252
v -0.004925 0.115349 0.005051
v -0.004925 0.115349 -0.004924
v 0.004925 0.115349 0.005051
v 0.004925 0.115349 -0.004924
v -0.009000 0.156871 0.003850
v -0.009000 0.156871 -0.003850
v -0.003851 0.156871 -0.008998
v 0.009000 0.156871 -0.003850
v 0.009000 0.156871 0.003850
v 0.003851 0.156871 0.009252
v -0.003849 0.156871 0.009252
v 0.003849 0.156871 -0.008998
v -0.004925 0.156871 0.005051
v -0.004925 0.156871 -0.004924
v 0.004925 0.156871 0.005051
v 0.004925 0.156871 -0.004924
v -0.034000 0.162185 -0.000000
v -0.017500 0.168685 0.003000
v -0.017500 0.168685 -0.003000
v -0.003001 0.168685 -0.017498
v -0.000001 0.162185 -0.033998
v 0.017500 0.168685 -0.003000
v 0.017500 0.168685 0.003000
v 0.034000 0.162185 -0.000000
v 0.000001 0.162185 0.034252
v 0.003001 0.168685 0.017752
v -0.002999 0.168685 0.017752
v 0.002999 0.168685 -0.017498
vn -0.3827 -0.0000 -0.9239
vn -0.9239 -0.0000 -0.3827
vn -0.9239 -0.0000 0.3827
vn -0.3827 -0.0000 0.9239
vn 0.3827 -0.0000 0.9239
vn 0.9239 -0.0000 0.3827
vn 0.9239 -0.0000 -0.3827
vn 0.3827 -0.0000 -0.9239
vn -0.0000 1.0000 -0.0000
vn 0.8326 0.0062 -0.5538
vn 0.4428 -0.4645 0.7669
vn -0.8959 0.0062 0.4442
vn -0.0000 -1.0000 -0.0000
vn 1.0000 -0.0000 -0.0000
vn -0.8959 0.0062 -0.4442
vn 0.4428 -0.4645 -0.7669
vn 0.8326 0.0062 0.5538
vn 0.4576 -0.4029 0.7926
vn -0.8856 -0.4645 -0.0000
vn 0.0633 0.0062 -0.9980
vn 0.0633 0.0062 0.9980
vn 0.0508 0.0013 0.9987
vn 0.4818 -0.2670 0.8346
vn -0.8870 0.0041 -0.4618
vn -0.9637 -0.2670 -0.0000
vn 0.8395 0.0013 -0.5433
vn 0.0508 0.0013 -0.9987
vn -0.5000 -0.0000 -0.8660
vn -0.9152 -0.4029 -0.0000
vn 0.8395 0.0013 0.5433
vn 0.4576 -0.4029 -0.7926
vn -0.8903 0.0013 -0.4554
vn -0.5000 -0.0000 0.8660
vn -0.8903 0.0013 0.4554
vn 0.5000 -0.0000 -0.8660
vn 0.0394 -0.0000 -0.9992
vn 0.5000 -0.0000 0.8660
vn 0.0435 0.0041 -0.9990
vn 0.4818 -0.2670 -0.8346
vn -0.8870 0.0041 0.4618
vn 0.8434 0.0041 0.5372
vn 0.0435 0.0041 0.9990
vn 0.8434 0.0041 -0.5372
vn 0.8437 -0.0114 0.5368
vn -0.8851 -0.0000 0.4655
vn 0.8456 -0.0000 0.5338
vn 0.0394 -0.0000 0.9992
vn 0.8456 -0.0000 -0.5338
vn -1.0000 -0.0000 -0.0000
vn -0.8851 -0.0000 -0.4655
vn -0.8913 -0.0082 0.4533
vn 0.2901 0.8145 -0.5024
vn 0.0430 -0.0114 0.9990
vn 0.8437 -0.0114 -0.5368
vn -0.7720 0.6356 -0.0000
vn -0.8867 -0.0114 -0.4622
vn 0.3860 0.6356 0.6686
vn 0.0430 -0.0114 -0.9990
vn 0.3860 0.6356 -0.6686
vn -0.8867 -0.0114 0.4622
vn 0.8382 -0.0082 0.5453
vn 0.0531 -0.0082 0.9986
vn 0.8382 -0.0082 -0.5453
vn -0.5802 0.8145 -0.0000
vn -0.8913 -0.0082 -0.4533
vn 0.2901 0.8145 0.5024
vn 0.0531 -0.0082 -0.9986
vn 0.9749 -0.0519 -0.2164
vn 0.9601 0.1194 -0.2528
vn 0.9863 0.0741 -0.1471
vn 0.9895 0.0388 -0.1393
vn -0.1674 -0.0592 -0.9841
vn -0.1641 -0.0734 -0.9837
vn -0.1714 -0.0671 -0.9829
vn -0.1858 -0.0559 -0.9810
vn -0.1738 -0.0467 0.9837
vn -0.1589 -0.0572 0.9856
vn -0.1526 -0.0640 0.9862
vn -0.1545 -0.0497 0.9867
vn 0.1828 -0.0569 -0.9815
vn 0.1695 -0.0670 -0.9832
vn 0.1624 -0.0733 -0.9840
vn 0.1649 -0.0604 -0.9845
vn -0.0000 -0.1817 -0.9834
vn 0.1520 -0.0507 0.9871
vn 0.1509 -0.0640 0.9865
vn 0.1570 -0.0572 0.9859
vn 0.1710 -0.0476 0.9841
vn -0.2543 0.1179 0.9599
vn -0.2159 -0.0507 0.9751
vn -0.1405 0.0395 0.9893
vn -0.1487 0.0752 0.9860
vn -0.9843 -0.0598 0.1661
vn -0.9839 -0.0736 0.1629
vn -0.9831 -0.0674 0.1702
vn -0.9812 -0.0564 0.1844
vn 0.9839 -0.0471 0.1726
vn 0.9858 -0.0575 0.1578
vn 0.9865 -0.0641 0.1510
vn 0.9870 -0.0500 0.1530
vn -0.9815 -0.0569 -0.1829
vn -0.9832 -0.0672 -0.1697
vn -0.9840 -0.0733 -0.1625
vn -0.9845 -0.0604 -0.1649
vn -0.9720 -0.0431 0.2312
vn -0.9549 0.1253 0.2690
vn -0.9830 0.0836 0.1635
vn -0.9865 0.0477 0.1566
vn 0.9872 -0.0505 -0.1516
vn 0.9865 -0.0638 -0.1506
vn 0.9859 -0.0572 -0.1571
vn 0.9841 -0.0476 -0.1710
vn 0.9686 -0.0000 0.2486
vn 0.9752 0.0784 0.2068
vn 0.9539 0.0776 0.2899
vn 0.9669 -0.0000 -0.2553
vn 0.9414 -0.0150 -0.3370
vn -0.9552 0.1268 -0.2675
vn -0.9718 -0.0444 -0.2317
vn -0.9867 0.0470 -0.1553
vn -0.9833 0.0825 -0.1620
vn 0.2676 0.1269 -0.9552
vn 0.2317 -0.0444 -0.9718
vn 0.1553 0.0470 -0.9867
vn 0.1619 0.0825 -0.9834
vn -0.2312 -0.0431 -0.9720
vn -0.2691 0.1254 -0.9549
vn -0.1635 0.0836 -0.9830
vn -0.1566 0.0477 -0.9865
vn 0.9834 -0.1817 -0.0000
vn -0.9834 -0.1817 -0.0000
vn 0.9599 0.1179 0.2543
vn 0.9751 -0.0507 0.2159
vn 0.9893 0.0395 0.1405
vn 0.9860 0.0752 0.1487
vn -0.0000 -0.1817 0.9834
vn 0.2164 -0.0518 0.9749
vn 0.2528 0.1192 0.9602
vn 0.1472 0.0741 0.9863
vn 0.1393 0.0388 0.9895
vn 0.9036 0.4280 0.0156
vn 0.9602 0.2782 0.0265
vn 0.9366 0.3504 -0.0001
vn 0.9037 0.4279 -0.0160
vn -0.2548 -0.0000 -0.9670
vn -0.9669 -0.0000 -0.2550
vn -0.2827 -0.0000 0.9592
vn 0.9688 -0.0000 0.2478
vn -0.9688 -0.0000 0.2480
vn -0.9841 -0.0436 0.1724
vn -0.9566 -0.0827 0.2796
vn -0.9861 -0.0133 0.1656
vn -0.9686 -0.0000 0.2486
vn -0.1724 -0.0436 -0.9841
vn -0.2796 -0.0827 -0.9566
vn -0.1656 -0.0133 -0.9861
vn -0.2486 -0.0000 -0.9686
vn 0.9541 0.0793 -0.2887
vn 0.9756 0.0786 -0.2052
vn 0.9863 -0.0144 -0.1646
vn 0.9687 -0.0855 -0.2331
vn -0.9710 -0.0222 -0.2382
vn -0.9779 -0.1575 -0.1372
vn -0.9945 -0.0193 -0.1028
vn -0.9939 -0.0053 -0.1101
vn 0.9709 -0.0241 0.2384
vn 0.9782 -0.1561 0.1368
vn 0.9944 -0.0195 0.1042
vn 0.9937 -0.0047 0.1121
vn 0.2383 -0.0222 -0.9709
vn 0.1372 -0.1575 -0.9779
vn 0.1028 -0.0193 -0.9945
vn 0.1100 -0.0052 -0.9939
vn 0.8117 0.5840 -0.0000
vn 0.2548 -0.0000 -0.9670
vn 0.3366 -0.0150 -0.9415
vn -0.9844 -0.0424 -0.1708
vn -0.9686 -0.0000 -0.2486
vn -0.9862 -0.0144 -0.1647
vn -0.9567 -0.0840 -0.2786
vn 0.2887 0.0793 -0.9541
vn 0.2331 -0.0856 -0.9687
vn 0.1646 -0.0144 -0.9863
vn 0.2052 0.0786 -0.9756
vn -0.2486 -0.0000 0.9686
vn -0.2068 0.0784 0.9752
vn -0.2899 0.0776 0.9539
vn 0.2827 -0.0000 0.9592
vn -0.9604 0.2774 -0.0277
vn -0.9603 0.2776 0.0281
vn -0.9031 0.4292 0.0151
vn -0.9366 0.3504 0.0001
vn 0.1707 -0.0425 0.9844
vn 0.2786 -0.0841 0.9567
vn 0.1647 -0.0144 0.9862
vn 0.2486 -0.0000 0.9686
vn -0.3665 0.9304 -0.0000
vn 0.3665 0.9304 -0.0000
vn -0.0000 0.9304 0.3665
vn -0.0000 0.9304 -0.3665
vn -0.0000 0.5840 0.8117
vn -0.0000 0.5840 -0.8117
vn -0.8117 0.5840 -0.0000
vn 0.9779 -0.1575 -0.1372
vn 0.9710 -0.0222 -0.2382
vn 0.9939 -0.0052 -0.1100
vn 0.9945 -0.0193 -0.1028
vn -0.2384 -0.0241 0.9709
vn -0.1368 -0.1561 0.9782
vn -0.1042 -0.0195 0.9944
vn -0.1121 -0.0047 0.9937
vn -0.9782 -0.1561 0.1368
vn -0.9709 -0.0241 0.2384
vn -0.9937 -0.0047 0.1121
vn -0.9944 -0.0195 0.1042
vn 0.1372 -0.1575 0.9779
vn 0.2382 -0.0222 0.9710
vn 0.1100 -0.0052 0.9939
vn 0.1028 -0.0193 0.9945
vn -0.1368 -0.1561 -0.9782
vn -0.2384 -0.0241 -0.9709
vn -0.1121 -0.0048 -0.9937
vn -0.1042 -0.0195 -0.9944
vn 0.0156 0.4331 -0.9012
vn 0.0265 0.2837 -0.9586
vn -0.0000 0.3557 -0.9346
vn -0.0159 0.4331 -0.9012
vn 0.0281 0.2776 0.9603
vn 0.0150 0.4292 0.9031
vn -0.0000 0.3503 0.9366
vn -0.0277 0.2774 0.9603
vn 0.0758 0.9968 0.0266
vn 0.0282 0.9967 -0.0765
vn -0.0765 0.9967 -0.0281
vt 0.406247 0.993816
vt 0.406248 0.130550
vt 0.396756 0.130550
vt 0.396755 0.993816
vt 0.387264 0.130550
vt 0.387263 0.993816
vt 0.425231 0.993816
vt 0.425231 0.130550
vt 0.415739 0.130550
vt 0.415739 0.993816
vt 0.406247 0.130550
vt 0.396755 0.130550
vt 0.387263 0.130550
vt 0.425232 0.130550
vt 0.415740 0.130550
vt 0.425100 0.500801
vt 0.414064 0.511837
vt 0.398458 0.511837
vt 0.425100 0.485195
vt 0.387422 0.500801
vt 0.414064 0.474159
vt 0.387423 0.485195
vt 0.398458 0.474159
vt 0.009275 0.528007
vt 0.009277 0.454782
vt 0.043536 0.454784
vt 0.015123 0.528009
vt 0.095313 0.022023
vt 0.098843 0.087972
vt 0.107877 0.087972
vt 0.108067 0.022023
vt 0.015123 0.527982
vt 0.043536 0.454758
vt 0.009277 0.454756
vt 0.009275 0.527980
vt 0.095303 0.995639
vt 0.095313 0.986970
vt 0.108067 0.986970
vt 0.108000 0.995639
vt 0.003389 0.987859
vt 0.009275 0.528007
vt 0.009277 0.454782
vt 0.043536 0.454784
vt 0.015123 0.528009
vt 0.095313 0.022023
vt 0.098843 0.087972
vt 0.107877 0.087972
vt 0.108067 0.022023
vt 0.015123 0.527982
vt 0.043536 0.454758
vt 0.009275 0.527980
vt 0.095303 0.995639
vt 0.095313 0.986969
vt 0.108067 0.986969
vt 0.108000 0.995639
vt 0.103891 0.196985
vt 0.112793 0.196985
vt 0.108067 0.022023
vt 0.095313 0.022023
vt 0.015123 0.527982
vt 0.043536 0.454758
vt 0.009277 0.454756
vt 0.009275 0.527980
vt 0.009275 0.528007
vt 0.015123 0.528009
vt 0.095313 0.986970
vt 0.095303 0.995639
vt 0.108067 0.986970
vt 0.007282 0.333236
vt 0.077085 0.333239
vt 0.105386 0.318193
vt 0.112844 0.318193
vt 0.077085 0.333239
vt 0.007282 0.333236
vt 0.004419 0.190937
vt 0.097475 0.190938
vt 0.112793 0.196985
vt 0.077085 0.333239
vt 0.077085 0.333213
vt 0.007282 0.333209
vt 0.077085 0.333213
vt 0.007283 0.333209
vt 0.103891 0.196985
vt 0.077085 0.333213
vt 0.112844 0.318193
vt 0.105386 0.318193
vt 0.104063 0.369296
vt 0.112055 0.369296
vt 0.004419 0.190911
vt 0.097475 0.190911
vt 0.093373 0.132423
vt 0.004480 0.132423
vt 0.104063 0.369296
vt 0.112054 0.369296
vt 0.097475 0.190911
vt 0.097475 0.190911
vt 0.004419 0.190938
vt 0.097475 0.190938
vt 0.097475 0.190938
vt 0.004480 0.132423
vt 0.093373 0.132423
vt 0.067913 0.084178
vt 0.004438 0.084187
vt 0.004480 0.132423
vt 0.004480 0.132450
vt 0.093373 0.132450
vt 0.004480 0.132450
vt 0.093373 0.132450
vt 0.112054 0.369296
vt 0.104063 0.369296
vt 0.004480 0.132450
vt 0.004438 0.084187
vt 0.067912 0.084178
vt 0.011229 0.021134
vt 0.003416 0.021137
vt 0.110535 0.416578
vt 0.103073 0.416578
vt 0.098159 0.508568
vt 0.111797 0.508568
vt 0.004438 0.084214
vt 0.067913 0.084205
vt 0.004438 0.084214
vt 0.067912 0.084205
vt 0.110535 0.416578
vt 0.103073 0.416578
vt 0.004438 0.084214
vt 0.067913 0.084205
vt 0.103072 0.416578
vt 0.110535 0.416578
vt 0.067913 0.084178
vt 0.098159 0.508568
vt 0.098187 0.517237
vt 0.111845 0.517237
vt 0.111796 0.508568
vt 0.098187 0.517237
vt 0.111845 0.517237
vt 0.098187 0.517237
vt 0.098159 0.508568
vt 0.111796 0.508568
vt 0.111845 0.517237
vt 0.011229 0.021134
vt 0.003416 0.021164
vt 0.011229 0.021160
vt 0.003416 0.021164
vt 0.011229 0.021160
vt 0.003416 0.021164
vt 0.011229 0.021160
vt 0.011229 0.021134
vt 0.003416 0.021137
vt 0.351093 0.141301
vt 0.384331 0.141322
vt 0.369730 0.100223
vt 0.338396 0.100336
vt 0.328645 0.206770
vt 0.335461 0.282053
vt 0.322695 0.282024
vt 0.306119 0.141276
vt 0.273916 0.141355
vt 0.137277 0.373942
vt 0.128461 0.373942
vt 0.135206 0.450903
vt 0.144987 0.448980
vt 0.319050 0.100141
vt 0.287620 0.100259
vt 0.318863 0.031904
vt 0.287718 0.057265
vt 0.328667 0.031915
vt 0.328594 0.100341
vt 0.338391 0.031898
vt 0.239657 0.441775
vt 0.239683 0.452494
vt 0.245357 0.453978
vt 0.245324 0.440266
vt 0.144988 0.305471
vt 0.137160 0.304708
vt 0.257525 0.434565
vt 0.246806 0.434590
vt 0.259210 0.440234
vt 0.265088 0.452436
vt 0.265062 0.441717
vt 0.259243 0.453946
vt 0.369592 0.057264
vt 0.246866 0.459647
vt 0.257585 0.459622
vt 0.291625 0.015177
vt 0.270960 0.024144
vt 0.252457 0.345400
vt 0.231947 0.345400
vt 0.243655 0.301484
vt 0.264162 0.301523
vt 0.427966 0.130123
vt 0.437420 0.130123
vt 0.438740 0.125121
vt 0.426646 0.125121
vt 0.437418 0.107716
vt 0.427964 0.107716
vt 0.426645 0.112874
vt 0.438738 0.112874
vt 0.443742 0.123803
vt 0.443742 0.114349
vt 0.421642 0.114349
vt 0.421642 0.123803
vt 0.257409 0.254354
vt 0.257409 0.254354
vt 0.264162 0.301523
vt 0.243655 0.301484
vt 0.257409 0.254354
vt 0.243655 0.301484
vt 0.264162 0.301523
vt 0.243655 0.301484
vt 0.231947 0.345400
vt 0.252457 0.345400
vt 0.252457 0.345400
vt 0.397084 0.024133
vt 0.365726 0.016256
vt 0.474152 0.087531
vt 0.462383 0.087517
vt 0.462372 0.099286
vt 0.474142 0.099300
usemtl material
f 1/1/1 2/2/1 4/3/1 3/4/1
f 3/4/2 4/3/2 6/5/2 5/6/2
f 5/7/3 6/8/3 8/9/3 7/10/3
f 7/10/4 8/9/4 10/11/4 9/1/4
f 9/1/5 10/11/5 12/12/5 11/4/5
f 11/4/6 12/12/6 14/13/6 13/6/6
f 13/7/7 14/14/7 16/15/7 15/10/7
f 15/10/8 16/15/8 2/2/8 1/1/8
f 1/16/9 3/17/9 5/18/9 15/19/9
f 15/19/9 5/18/9 7/20/9 13/21/9
f 13/21/9 7/20/9 9/22/9 11/23/9
f 19/24/10 20/25/10 24/26/10 23/27/10
f 23/28/11 24/29/11 22/30/11 21/31/11
f 21/32/12 22/33/12 18/34/12 17/35/12
f 19/36/13 23/37/13 21/38/13 17/39/13
f 38/40/14 40/40/14 51/40/14 52/40/14
f 27/41/15 28/42/15 32/43/15 31/44/15
f 31/45/16 32/46/16 30/47/16 29/48/16
f 29/49/17 30/50/17 26/34/17 25/51/17
f 27/52/13 31/53/13 29/54/13 25/55/13
f 22/30/18 24/29/18 43/56/18 44/57/18
f 33/58/19 34/30/19 36/29/19 35/59/19
f 35/60/20 36/61/20 40/62/20 39/63/20
f 37/64/21 38/25/21 34/43/21 33/65/21
f 35/66/13 39/67/13 37/39/13 33/68/13
f 34/43/22 38/25/22 52/69/22 49/70/22
f 44/57/23 43/56/23 55/71/23 56/72/23
f 47/73/24 46/74/24 58/75/24 59/76/24
f 50/56/25 49/77/25 61/72/25 62/71/25
f 24/26/26 20/25/26 42/74/26 43/78/26
f 40/62/27 36/61/27 50/79/27 51/80/27
f 20/40/28 18/40/28 41/40/28 42/40/28
f 36/29/29 34/30/29 49/77/29 50/56/29
f 26/34/30 30/50/30 48/81/30 45/82/30
f 30/47/31 32/46/31 47/83/31 48/77/31
f 32/43/32 28/42/32 46/74/32 47/73/32
f 28/40/33 26/40/33 45/40/33 46/40/33
f 18/34/34 22/33/34 44/84/34 41/80/34
f 60/85/35 59/86/35 71/87/35 72/88/35
f 63/89/36 62/90/36 74/91/36 75/92/36
f 56/72/37 55/71/37 67/93/37 68/94/37
f 51/80/38 50/79/38 62/90/38 63/89/38
f 48/77/39 47/83/39 59/86/39 60/85/39
f 41/80/40 44/84/40 56/95/40 53/89/40
f 52/40/14 51/40/14 63/40/14 64/40/14
f 42/40/28 41/40/28 53/40/28 54/40/28
f 45/82/41 48/81/41 60/96/41 57/89/41
f 46/40/33 45/40/33 57/40/33 58/40/33
f 49/70/42 52/69/42 64/97/42 61/98/42
f 43/78/43 42/74/43 54/97/43 55/99/43
f 69/100/44 72/101/44 84/102/44 81/103/44
f 66/40/28 65/40/28 77/40/28 78/40/28
f 76/40/14 75/40/14 87/40/14 88/40/14
f 53/89/45 56/95/45 68/91/45 65/104/45
f 64/40/14 63/40/14 75/40/14 76/40/14
f 54/40/28 53/40/28 65/40/28 66/40/28
f 57/89/46 60/96/46 72/101/46 69/100/46
f 58/40/33 57/40/33 69/40/33 70/40/33
f 61/98/47 64/97/47 76/105/47 73/106/47
f 55/99/48 54/97/48 66/107/48 67/108/48
f 62/71/49 61/72/49 73/109/49 74/110/49
f 59/76/50 58/75/50 70/111/50 71/106/50
f 88/40/14 87/40/14 99/40/14 100/40/14
f 77/112/51 80/113/51 92/114/51 89/115/51
f 84/116/52 83/117/52 95/118/52 96/119/52
f 70/40/33 69/40/33 81/40/33 82/40/33
f 73/106/53 76/105/53 88/120/53 85/121/53
f 67/108/54 66/107/54 78/122/54 79/123/54
f 74/110/55 73/109/55 85/124/55 86/125/55
f 71/106/56 70/111/56 82/126/56 83/127/56
f 68/94/57 67/93/57 79/128/57 80/129/57
f 75/92/58 74/91/58 86/130/58 87/112/58
f 72/88/59 71/87/59 83/117/59 84/116/59
f 65/104/60 68/91/60 80/113/60 77/112/60
f 91/131/9 90/132/9 89/133/9 92/134/9
f 95/118/9 94/135/9 93/136/9 96/119/9
f 99/137/9 98/138/9 97/139/9 100/140/9
f 78/40/28 77/40/28 89/40/28 90/40/28
f 81/103/61 84/102/61 96/141/61 93/115/61
f 82/40/33 81/40/33 93/40/33 94/40/33
f 85/121/62 88/120/62 100/142/62 97/143/62
f 79/123/63 78/122/63 90/144/63 91/145/63
f 86/125/64 85/124/64 97/139/64 98/138/64
f 83/127/65 82/126/65 94/146/65 95/147/65
f 80/129/66 79/128/66 91/131/66 92/134/66
f 87/112/67 86/130/67 98/148/67 99/149/67
f 116/150/68 115/151/69 122/152/70 129/153/71
f 101/151/72 103/150/73 106/154/74 104/155/75
f 104/156/76 105/154/77 102/157/78 101/158/79
f 104/156/80 108/154/81 111/157/82 109/158/83
f 113/159/84 114/160/84 128/161/84 127/162/84
f 109/151/85 110/150/86 107/154/87 104/155/88
f 101/158/89 102/157/90 119/163/91 118/164/92
f 112/151/93 114/150/94 105/154/95 104/155/96
f 104/156/97 107/154/98 113/157/99 112/158/100
f 104/156/101 106/154/102 117/157/103 115/158/104
f 114/150/105 112/151/106 126/152/107 128/153/108
f 115/151/109 116/150/110 108/154/111 104/155/112
f 127/163/113 143/165/113 133/166/114 126/164/115
f 149/167/116 137/168/116 129/153/117 145/169/116
f 121/170/13 129/171/13 137/172/13 135/173/13
f 115/158/118 117/157/119 121/163/120 122/164/121
f 109/158/122 111/157/123 123/163/124 125/164/125
f 103/150/126 101/151/127 118/152/128 120/153/129
f 102/159/130 103/160/130 120/161/130 119/162/130
f 111/159/131 110/160/131 124/161/131 123/162/131
f 112/158/132 113/157/133 127/163/134 126/164/135
f 117/159/136 116/160/136 129/161/136 121/162/136
f 110/150/137 109/151/138 125/152/139 124/153/140
f 102/159/141 105/174/142 106/175/143 103/160/144
f 139/169/145 147/167/145 135/168/145 120/153/145
f 140/165/146 121/163/146 135/168/146 147/167/146
f 119/176/13 120/177/13 135/173/13 134/178/13
f 119/163/147 134/168/147 146/167/147 138/165/147
f 148/167/148 143/165/148 127/163/148 136/168/148
f 127/179/13 128/180/13 134/178/13 136/181/13
f 144/169/149 146/167/149 134/168/149 128/153/149
f 126/152/150 133/182/151 144/169/152 128/153/153
f 118/152/154 130/182/155 139/169/156 120/153/157
f 123/183/13 124/184/13 136/181/13 137/172/13
f 122/152/158 131/182/159 145/169/160 129/153/161
f 131/166/162 140/165/163 153/185/164 154/186/165
f 133/166/166 143/165/167 159/185/168 158/186/169
f 132/166/170 141/165/171 155/185/172 157/186/173
f 138/187/174 139/188/174 152/189/174 151/190/174
f 145/191/9 140/192/9 147/193/9 149/194/9
f 144/195/9 143/196/9 148/197/9 146/198/9
f 139/199/9 138/200/9 146/198/9 147/193/9
f 142/201/9 141/202/9 149/194/9 148/197/9
f 149/167/175 141/165/175 123/163/176 137/168/175
f 122/164/177 121/163/178 140/165/179 131/166/180
f 125/164/181 123/163/182 141/165/183 132/166/184
f 119/163/185 138/165/185 130/166/186 118/164/187
f 136/168/188 124/153/188 142/169/188 148/167/188
f 108/174/189 107/175/190 110/160/191 111/159/192
f 125/152/193 132/182/194 142/169/195 124/153/196
f 150/203/197 151/190/197 152/189/197
f 157/204/198 155/205/198 156/206/198
f 158/207/199 159/208/199 160/209/199
f 154/207/200 153/190/200 161/210/200
f 140/187/201 145/211/201 161/210/201 153/190/201
f 143/188/202 144/212/202 160/209/202 159/208/202
f 141/213/203 142/188/203 156/206/203 155/205/203
f 145/169/204 131/182/205 154/214/206 161/215/207
f 130/166/208 138/165/209 151/185/210 150/186/211
f 144/169/212 133/182/213 158/214/214 160/215/215
f 142/169/216 132/182/217 157/214/218 156/215/219
f 139/169/220 130/182/221 150/214/222 152/215/223
f 113/159/224 107/174/225 105/175/226 114/160/227
f 108/175/228 116/160/229 117/159/230 106/174/231
f 105/216/9 107/217/232 108/218/233 106/219/234
f 134/178/13 135/173/13 137/172/13 136/181/13
f 146/198/9 148/197/9 149/194/9 147/193/9
