mtllib steel_arrow.mtl
o arrow
v 0.500000 0.510938 1.074999
v 0.500000 0.510937 0.154811
v 0.492266 0.507734 1.074999
v 0.492266 0.507734 0.154811
v 0.489062 0.500000 1.074999
v 0.489062 0.500000 0.154811
v 0.492266 0.492266 1.074999
v 0.492266 0.492266 0.154811
v 0.500000 0.489063 1.074999
v 0.500000 0.489062 0.154811
v 0.507734 0.492266 1.074999
v 0.507734 0.492266 0.154811
v 0.510937 0.500000 1.074999
v 0.510937 0.500000 0.154811
v 0.507734 0.507734 1.074999
v 0.507734 0.507734 0.154811
v 0.502609 0.491570 0.828992
v 0.502609 0.491570 0.857792
v 0.506073 0.493570 0.828992
v 0.506073 0.493570 0.857792
v 0.504939 0.486334 0.828992
v 0.514316 0.468492 0.857792
v 0.509442 0.488934 0.828992
v 0.520205 0.471892 0.857792
v 0.506073 0.506430 0.828992
v 0.506073 0.506430 0.857792
v 0.502609 0.508430 0.828992
v 0.502609 0.508430 0.857792
v 0.509443 0.511066 0.828992
v 0.520205 0.528108 0.857792
v 0.504939 0.513666 0.828992
v 0.514316 0.531508 0.857792
v 0.485519 0.497400 0.828992
v 0.465379 0.496600 0.857792
v 0.485519 0.502600 0.828992
v 0.465379 0.503400 0.857792
v 0.491219 0.498000 0.828992
v 0.491219 0.498000 0.857792
v 0.491219 0.502000 0.828992
v 0.491219 0.502000 0.857792
v 0.502609 0.491570 0.906992
v 0.506073 0.493570 0.906992
v 0.535768 0.447529 0.906992
v 0.527634 0.442833 0.906992
v 0.506073 0.506430 0.906992
v 0.502609 0.508430 0.906992
v 0.527634 0.557167 0.906992
v 0.535768 0.552471 0.906992
v 0.436499 0.495304 0.906992
v 0.436499 0.504696 0.906992
v 0.491219 0.502000 0.906992
v 0.491219 0.498000 0.906992
v 0.502609 0.491570 0.964592
v 0.506073 0.493570 0.964592
v 0.546671 0.429252 0.964592
v 0.538011 0.424252 0.964592
v 0.506073 0.506430 0.964592
v 0.502609 0.508430 0.964592
v 0.538011 0.575748 0.964592
v 0.546671 0.570748 0.964592
v 0.415219 0.495000 0.964592
v 0.415219 0.505000 0.964592
v 0.491219 0.502000 0.964592
v 0.491219 0.498000 0.964592
v 0.502609 0.491570 0.989792
v 0.506073 0.493570 0.989792
v 0.546671 0.429252 0.989792
v 0.538011 0.424252 0.989792
v 0.506073 0.506430 0.989792
v 0.502609 0.508430 0.989792
v 0.538011 0.575748 0.989792
v 0.546671 0.570748 0.989792
v 0.415219 0.495000 0.989792
v 0.415219 0.505000 0.989792
v 0.491219 0.502000 0.989792
v 0.491219 0.498000 0.989792
v 0.502609 0.491570 1.007792
v 0.506073 0.493570 1.007792
v 0.536528 0.446213 1.007792
v 0.528394 0.441517 1.007792
v 0.506073 0.506430 1.007792
v 0.502609 0.508430 1.007792
v 0.528394 0.558483 1.007792
v 0.536528 0.553787 1.007792
v 0.434979 0.495304 1.007792
v 0.434979 0.504696 1.007792
v 0.491219 0.502000 1.007792
v 0.491219 0.498000 1.007792
v 0.502609 0.491570 1.034792
v 0.506073 0.493570 1.034792
v 0.509442 0.488934 1.034792
v 0.504939 0.486334 1.034792
v 0.506073 0.506430 1.034792
v 0.502609 0.508430 1.034792
v 0.504939 0.513666 1.034792
v 0.509443 0.511066 1.034792
v 0.485519 0.497400 1.034792
v 0.485519 0.502600 1.034792
v 0.491219 0.502000 1.034792
v 0.491219 0.498000 1.034792
v 0.451258 0.500021 0.036223
v 0.473758 0.495371 0.036223
v 0.473758 0.505421 0.036223
v 0.500008 0.500019 -0.067796
v 0.495415 0.495426 -0.021671
v 0.495413 0.504613 -0.021671
v 0.504603 0.495426 -0.021671
v 0.504601 0.504613 -0.021671
v 0.548758 0.500021 0.036223
v 0.526258 0.495371 0.036223
v 0.526258 0.505421 0.036223
v 0.500009 0.450893 0.036223
v 0.504659 0.473393 0.036223
v 0.494609 0.473393 0.036223
v 0.500006 0.548767 0.036223
v 0.504656 0.526267 0.036223
v 0.494606 0.526267 0.036223
v 0.464008 0.500021 0.105228
v 0.486508 0.494246 0.105228
v 0.486508 0.505796 0.105228
v 0.494231 0.513517 0.105228
v 0.500006 0.536017 0.105228
v 0.513508 0.505796 0.105228
v 0.513508 0.494246 0.105228
v 0.536008 0.500021 0.105228
v 0.500009 0.463643 0.105228
v 0.505784 0.486143 0.105228
v 0.494234 0.486143 0.105228
v 0.505782 0.513517 0.105228
v 0.464008 0.500021 0.148010
v 0.500006 0.536017 0.148010
v 0.536008 0.500021 0.148010
v 0.500009 0.463643 0.148010
v 0.492621 0.492444 0.105228
v 0.492620 0.507407 0.105228
v 0.507396 0.492444 0.105228
v 0.507395 0.507407 0.105228
v 0.486508 0.494246 0.167510
v 0.486508 0.505796 0.167510
v 0.494231 0.513517 0.167510
v 0.513508 0.505796 0.167510
v 0.513508 0.494246 0.167510
v 0.505784 0.486143 0.167510
v 0.494234 0.486143 0.167510
v 0.505781 0.513517 0.167510
v 0.492621 0.492444 0.167510
v 0.492620 0.507407 0.167510
v 0.507396 0.492444 0.167510
v 0.507395 0.507407 0.167510
v 0.449008 0.500021 0.175482
v 0.473758 0.495521 0.185232
v 0.473758 0.504521 0.185232
v 0.495506 0.526267 0.185232
v 0.500006 0.551017 0.175482
v 0.526258 0.504521 0.185232
v 0.526258 0.495521 0.185232
v 0.551008 0.500021 0.175482
v 0.500009 0.448643 0.175482
v 0.504509 0.473393 0.185232
v 0.495509 0.473393 0.185232
v 0.504506 0.526267 0.185232
vn -0.3827 0.9239 -0.0000
vn -0.9239 0.3827 -0.0000
vn -0.9239 -0.3827 -0.0000
vn -0.3827 -0.9239 -0.0000
vn 0.3827 -0.9239 -0.0000
vn 0.9239 -0.3827 -0.0000
vn 0.9239 0.3827 -0.0000
vn 0.3827 0.9239 -0.0000
vn -0.0000 -0.0000 1.0000
vn 0.8326 0.5538 0.0083
vn 0.4097 -0.7097 -0.5731
vn -0.8959 -0.4442 0.0083
vn -0.0000 -0.0000 -1.0000
vn 1.0000 -0.0000 -0.0000
vn -0.8959 0.4442 0.0083
vn 0.4097 0.7097 -0.5731
vn 0.8326 -0.5538 0.0083
vn 0.4312 -0.7469 -0.5062
vn -0.8195 -0.0000 -0.5731
vn 0.0633 0.9980 0.0083
vn 0.0633 -0.9980 0.0083
vn 0.0508 -0.9987 0.0017
vn 0.4690 -0.8124 -0.3466
vn -0.8870 0.4618 0.0054
vn -0.9380 -0.0000 -0.3466
vn 0.8395 0.5433 0.0017
vn 0.0508 0.9987 0.0017
vn -0.5000 0.8660 -0.0000
vn -0.8624 -0.0000 -0.5062
vn 0.8395 -0.5433 0.0017
vn 0.4312 0.7469 -0.5062
vn -0.8903 0.4554 0.0017
vn -0.5000 -0.8660 -0.0000
vn -0.8903 -0.4554 0.0017
vn 0.5000 0.8660 -0.0000
vn 0.0394 0.9992 -0.0000
vn 0.5000 -0.8660 -0.0000
vn 0.0435 0.9990 0.0054
vn 0.4690 0.8124 -0.3466
vn -0.8870 -0.4618 0.0054
vn 0.8434 -0.5372 0.0054
vn 0.0435 -0.9990 0.0054
vn 0.8434 0.5372 0.0054
vn 0.8436 -0.5367 -0.0152
vn -0.8851 -0.4655 -0.0000
vn 0.8456 -0.5338 -0.0000
vn 0.0394 -0.9992 -0.0000
vn 0.8456 0.5338 -0.0000
vn -1.0000 -0.0000 -0.0000
vn -0.8851 0.4655 -0.0000
vn -0.8913 -0.4533 -0.0110
vn 0.2356 0.4081 0.8820
vn 0.0430 -0.9990 -0.0152
vn 0.8436 0.5367 -0.0152
vn -0.6734 -0.0000 0.7393
vn -0.8866 0.4622 -0.0152
vn 0.3367 -0.5832 0.7393
vn 0.0430 0.9990 -0.0152
vn 0.3367 0.5832 0.7393
vn -0.8866 -0.4622 -0.0152
vn 0.8382 -0.5453 -0.0110
vn 0.0531 -0.9985 -0.0110
vn 0.8382 0.5453 -0.0110
vn -0.4712 -0.0000 0.8820
vn -0.8913 0.4532 -0.0110
vn 0.2356 -0.4081 0.8820
vn 0.0531 0.9985 -0.0110
vn 0.9749 0.2164 -0.0519
vn 0.9601 0.2528 0.1194
vn 0.9863 0.1471 0.0741
vn 0.9895 0.1393 0.0388
vn -0.1674 0.9841 -0.0592
vn -0.1641 0.9837 -0.0734
vn -0.1714 0.9829 -0.0671
vn -0.1858 0.9810 -0.0559
vn -0.1738 -0.9837 -0.0467
vn -0.1589 -0.9856 -0.0572
vn -0.1525 -0.9862 -0.0640
vn -0.1545 -0.9867 -0.0497
vn 0.1828 0.9815 -0.0569
vn 0.1695 0.9832 -0.0670
vn 0.1624 0.9840 -0.0733
vn 0.1649 0.9845 -0.0604
vn -0.0000 0.9834 -0.1817
vn 0.1520 -0.9871 -0.0507
vn 0.1509 -0.9865 -0.0640
vn 0.1570 -0.9859 -0.0572
vn 0.1710 -0.9841 -0.0476
vn -0.2543 -0.9599 0.1179
vn -0.2159 -0.9751 -0.0507
vn -0.1405 -0.9893 0.0395
vn -0.1487 -0.9860 0.0752
vn -0.9843 -0.1661 -0.0598
vn -0.9839 -0.1629 -0.0736
vn -0.9831 -0.1702 -0.0674
vn -0.9812 -0.1844 -0.0564
vn 0.9839 -0.1726 -0.0471
vn 0.9858 -0.1578 -0.0575
vn 0.9865 -0.1510 -0.0641
vn 0.9870 -0.1530 -0.0500
vn -0.9815 0.1829 -0.0569
vn -0.9832 0.1697 -0.0672
vn -0.9840 0.1625 -0.0733
vn -0.9845 0.1649 -0.0604
vn -0.9720 -0.2312 -0.0431
vn -0.9549 -0.2690 0.1253
vn -0.9830 -0.1635 0.0836
vn -0.9865 -0.1566 0.0477
vn 0.9872 0.1516 -0.0505
vn 0.9865 0.1506 -0.0638
vn 0.9859 0.1571 -0.0572
vn 0.9841 0.1710 -0.0476
vn 0.9686 -0.2486 -0.0000
vn 0.9752 -0.2068 0.0784
vn 0.9539 -0.2899 0.0776
vn 0.9669 0.2553 -0.0000
vn 0.9414 0.3370 -0.0150
vn -0.9552 0.2676 0.1268
vn -0.9718 0.2317 -0.0444
vn -0.9867 0.1553 0.0470
vn -0.9833 0.1620 0.0825
vn 0.2676 0.9552 0.1269
vn 0.2317 0.9718 -0.0444
vn 0.1553 0.9867 0.0470
vn 0.1619 0.9834 0.0825
vn -0.2312 0.9720 -0.0431
vn -0.2691 0.9549 0.1254
vn -0.1635 0.9830 0.0836
vn -0.1566 0.9865 0.0477
vn 0.9834 -0.0000 -0.1817
vn -0.9834 -0.0000 -0.1817
vn 0.9599 -0.2543 0.1179
vn 0.9751 -0.2159 -0.0507
vn 0.9893 -0.1405 0.0395
vn 0.9860 -0.1487 0.0752
vn -0.0000 -0.9834 -0.1817
vn 0.2164 -0.9749 -0.0518
vn 0.2528 -0.9602 0.1192
vn 0.1472 -0.9863 0.0741
vn 0.1393 -0.9895 0.0388
vn 0.9036 -0.0156 0.4280
vn 0.9602 -0.0265 0.2782
vn 0.9366 0.0001 0.3504
vn 0.9037 0.0160 0.4279
vn -0.2548 0.9670 -0.0000
vn -0.9669 0.2550 -0.0000
vn -0.2827 -0.9592 -0.0000
vn 0.9688 -0.2478 -0.0000
vn -0.9688 -0.2480 -0.0000
vn -0.9841 -0.1724 -0.0436
vn -0.9566 -0.2796 -0.0827
vn -0.9861 -0.1656 -0.0133
vn -0.9686 -0.2486 -0.0000
vn -0.1724 0.9841 -0.0436
vn -0.2796 0.9566 -0.0827
vn -0.1656 0.9861 -0.0133
vn -0.2486 0.9686 -0.0000
vn 0.9541 0.2887 0.0793
vn 0.9756 0.2052 0.0786
vn 0.9863 0.1646 -0.0144
vn 0.9687 0.2331 -0.0855
vn -0.9710 0.2382 -0.0222
vn -0.9779 0.1372 -0.1575
vn -0.9945 0.1028 -0.0193
vn -0.9939 0.1101 -0.0053
vn 0.9709 -0.2384 -0.0241
vn 0.9782 -0.1368 -0.1561
vn 0.9944 -0.1042 -0.0195
vn 0.9937 -0.1121 -0.0047
vn 0.2383 0.9709 -0.0222
vn 0.1372 0.9779 -0.1575
vn 0.1028 0.9945 -0.0193
vn 0.1100 0.9939 -0.0052
vn 0.8117 -0.0000 0.5840
vn 0.2548 0.9670 -0.0000
vn 0.3366 0.9415 -0.0150
vn -0.9844 0.1708 -0.0424
vn -0.9686 0.2486 -0.0000
vn -0.9862 0.1647 -0.0144
vn -0.9567 0.2786 -0.0840
vn 0.2887 0.9541 0.0793
vn 0.2331 0.9687 -0.0856
vn 0.1646 0.9863 -0.0144
vn 0.2052 0.9756 0.0786
vn -0.2486 -0.9686 -0.0000
vn -0.2068 -0.9752 0.0784
vn -0.2899 -0.9539 0.0776
vn 0.2827 -0.9592 -0.0000
vn -0.9604 0.0277 0.2774
vn -0.9603 -0.0281 0.2776
vn -0.9031 -0.0151 0.4292
vn -0.9366 -0.0001 0.3504
vn 0.1707 -0.9844 -0.0425
vn 0.2786 -0.9567 -0.0841
vn 0.1647 -0.9862 -0.0144
vn 0.2486 -0.9686 -0.0000
vn -0.3665 -0.0000 0.9304
vn 0.3665 -0.0000 0.9304
vn -0.0000 -0.3665 0.9304
vn -0.0000 0.3665 0.9304
vn -0.0000 -0.8117 0.5840
vn -0.0000 0.8117 0.5840
vn -0.8117 -0.0000 0.5840
vn 0.9779 0.1372 -0.1575
vn 0.9710 0.2382 -0.0222
vn 0.9939 0.1100 -0.0052
vn 0.9945 0.1028 -0.0193
vn -0.2384 -0.9709 -0.0241
vn -0.1368 -0.9782 -0.1561
vn -0.1042 -0.9944 -0.0195
vn -0.1121 -0.9937 -0.0047
vn -0.9782 -0.1368 -0.1561
vn -0.9709 -0.2384 -0.0241
vn -0.9937 -0.1121 -0.0047
vn -0.9944 -0.1042 -0.0195
vn 0.1372 -0.9779 -0.1575
vn 0.2382 -0.9710 -0.0222
vn 0.1100 -0.9939 -0.0052
vn 0.1028 -0.9945 -0.0193
vn -0.1368 0.9782 -0.1561
vn -0.2384 0.9709 -0.0241
vn -0.1121 0.9937 -0.0048
vn -0.1042 0.9944 -0.0195
vn 0.0156 0.9012 0.4331
vn 0.0265 0.9586 0.2837
vn -0.0000 0.9346 0.3557
vn -0.0159 0.9012 0.4331
vn 0.0281 -0.9603 0.2776
vn 0.0150 -0.9031 0.4292
vn -0.0000 -0.9366 0.3503
vn -0.0277 -0.9603 0.2774
vn 0.0758 -0.0266 0.9968
vn 0.0282 0.0765 0.9967
vn -0.0765 0.0281 0.9967
vt 0.406247 0.995639
vt 0.406248 0.132373
vt 0.396756 0.132373
vt 0.396755 0.995639
vt 0.387264 0.132373
vt 0.387263 0.995639
vt 0.425231 0.995639
vt 0.425231 0.132373
vt 0.415739 0.132373
vt 0.415739 0.995639
vt 0.406247 0.132373
vt 0.396755 0.132373
vt 0.387263 0.132373
vt 0.425232 0.132373
vt 0.415740 0.132373
vt 0.425100 0.502624
vt 0.414064 0.513659
vt 0.398458 0.513659
vt 0.425100 0.487017
vt 0.387422 0.502624
vt 0.414064 0.475982
vt 0.387423 0.487017
vt 0.398458 0.475982
vt 0.009275 0.529830
vt 0.009277 0.456605
vt 0.043536 0.456607
vt 0.015123 0.529832
vt 0.095313 0.023846
vt 0.098843 0.089795
vt 0.107877 0.089795
vt 0.108067 0.023846
vt 0.015123 0.529805
vt 0.043536 0.456580
vt 0.009277 0.456578
vt 0.009275 0.529803
vt 0.095303 0.015177
vt 0.108000 0.015177
vt 0.003389 0.987859
vt 0.009275 0.529829
vt 0.009277 0.456605
vt 0.043536 0.456607
vt 0.015123 0.529832
vt 0.095313 0.023846
vt 0.098843 0.089795
vt 0.107877 0.089795
vt 0.108067 0.023846
vt 0.015123 0.529805
vt 0.043536 0.456580
vt 0.009275 0.529803
vt 0.095303 0.015177
vt 0.108000 0.015177
vt 0.103891 0.198808
vt 0.112793 0.198808
vt 0.108067 0.023846
vt 0.095313 0.023846
vt 0.015123 0.529805
vt 0.043536 0.456580
vt 0.009277 0.456578
vt 0.009275 0.529803
vt 0.009275 0.529829
vt 0.015123 0.529832
vt 0.095303 0.015177
vt 0.007282 0.335059
vt 0.077085 0.335062
vt 0.105386 0.320015
vt 0.112844 0.320015
vt 0.077085 0.335062
vt 0.007282 0.335059
vt 0.004419 0.192760
vt 0.097475 0.192760
vt 0.112793 0.198808
vt 0.077085 0.335062
vt 0.077085 0.335035
vt 0.007282 0.335032
vt 0.077085 0.335035
vt 0.007283 0.335032
vt 0.103891 0.198808
vt 0.077085 0.335035
vt 0.112844 0.320015
vt 0.105386 0.320015
vt 0.104063 0.371118
vt 0.112055 0.371118
vt 0.004419 0.192733
vt 0.097475 0.192734
vt 0.093373 0.134246
vt 0.004480 0.134246
vt 0.104063 0.371118
vt 0.112054 0.371118
vt 0.097475 0.192734
vt 0.097475 0.192734
vt 0.004419 0.192760
vt 0.097475 0.192760
vt 0.097475 0.192760
vt 0.004480 0.134246
vt 0.093373 0.134246
vt 0.067913 0.086001
vt 0.004438 0.086010
vt 0.004480 0.134246
vt 0.004480 0.134273
vt 0.093373 0.134273
vt 0.004480 0.134273
vt 0.093373 0.134273
vt 0.112054 0.371118
vt 0.104063 0.371118
vt 0.004480 0.134273
vt 0.004438 0.086010
vt 0.067912 0.086001
vt 0.011229 0.022956
vt 0.003416 0.022960
vt 0.110535 0.418401
vt 0.103073 0.418401
vt 0.098159 0.510391
vt 0.111797 0.510391
vt 0.004438 0.086036
vt 0.067913 0.086028
vt 0.004438 0.086036
vt 0.067912 0.086028
vt 0.110535 0.418401
vt 0.103073 0.418401
vt 0.004438 0.086036
vt 0.067913 0.086028
vt 0.103072 0.418401
vt 0.110535 0.418401
vt 0.067913 0.086001
vt 0.098159 0.510391
vt 0.098187 0.519060
vt 0.111845 0.519060
vt 0.111796 0.510391
vt 0.098187 0.519060
vt 0.111845 0.519060
vt 0.098187 0.519060
vt 0.098159 0.510391
vt 0.111796 0.510391
vt 0.111845 0.519060
vt 0.011229 0.022956
vt 0.003416 0.022987
vt 0.011229 0.022983
vt 0.003416 0.022987
vt 0.011229 0.022983
vt 0.003416 0.022987
vt 0.011229 0.022983
vt 0.011229 0.022956
vt 0.003416 0.022960
vt 0.351093 0.143124
vt 0.384331 0.143145
vt 0.369730 0.102046
vt 0.338396 0.102158
vt 0.328645 0.208593
vt 0.335461 0.283876
vt 0.322695 0.283847
vt 0.306119 0.143099
vt 0.273916 0.143178
vt 0.137277 0.375764
vt 0.128461 0.375764
vt 0.135206 0.452726
vt 0.144987 0.450803
vt 0.319050 0.101964
vt 0.287620 0.102082
vt 0.318863 0.033727
vt 0.287718 0.059088
vt 0.328667 0.033737
vt 0.328594 0.102164
vt 0.338391 0.033721
vt 0.239657 0.443598
vt 0.239683 0.454317
vt 0.245357 0.455800
vt 0.245324 0.442088
vt 0.144988 0.307293
vt 0.137160 0.306531
vt 0.257525 0.436387
vt 0.246806 0.436413
vt 0.259210 0.442056
vt 0.265088 0.454258
vt 0.265062 0.443539
vt 0.259243 0.455768
vt 0.369592 0.059086
vt 0.246866 0.461470
vt 0.257585 0.461445
vt 0.291625 0.017000
vt 0.270960 0.025967
vt 0.252457 0.347223
vt 0.231947 0.347223
vt 0.243655 0.303307
vt 0.264162 0.303346
vt 0.427966 0.131946
vt 0.437420 0.131946
vt 0.438740 0.126944
vt 0.426646 0.126944
vt 0.437418 0.109539
vt 0.427964 0.109539
vt 0.426645 0.114697
vt 0.438738 0.114697
vt 0.443742 0.125625
vt 0.443742 0.116171
vt 0.421642 0.116171
vt 0.421642 0.125625
vt 0.257409 0.256177
vt 0.257409 0.256177
vt 0.264162 0.303346
vt 0.243655 0.303307
vt 0.257409 0.256177
vt 0.243655 0.303307
vt 0.264162 0.303345
vt 0.243655 0.303307
vt 0.231947 0.347223
vt 0.252457 0.347223
vt 0.252457 0.347223
vt 0.397084 0.025955
vt 0.365726 0.018078
vt 0.474152 0.089354
vt 0.462383 0.089340
vt 0.462372 0.101109
vt 0.474142 0.101123
vt 0.438738 0.112874
vt 0.426645 0.112874
vt 0.426646 0.125121
vt 0.438740 0.125121
usemtl material
f 1/1/1 2/2/1 4/3/1 3/4/1
f 3/4/2 4/3/2 6/5/2 5/6/2
f 5/7/3 6/8/3 8/9/3 7/10/3
f 7/10/4 8/9/4 10/11/4 9/1/4
f 9/1/5 10/11/5 12/12/5 11/4/5
f 11/4/6 12/12/6 14/13/6 13/6/6
f 13/7/7 14/14/7 16/15/7 15/10/7
f 15/10/8 16/15/8 2/2/8 1/1/8
f 1/16/9 3/17/9 5/18/9 15/19/9
f 15/19/9 5/18/9 7/20/9 13/21/9
f 13/21/9 7/20/9 9/22/9 11/23/9
f 19/24/10 20/25/10 24/26/10 23/27/10
f 23/28/11 24/29/11 22/30/11 21/31/11
f 21/32/12 22/33/12 18/34/12 17/35/12
f 19/36/13 23/28/13 21/31/13 17/37/13
f 38/38/14 40/38/14 51/38/14 52/38/14
f 27/39/15 28/40/15 32/41/15 31/42/15
f 31/43/16 32/44/16 30/45/16 29/46/16
f 29/47/17 30/48/17 26/34/17 25/49/17
f 27/50/13 31/43/13 29/46/13 25/51/13
f 22/30/18 24/29/18 43/52/18 44/53/18
f 33/54/19 34/30/19 36/29/19 35/55/19
f 35/56/20 36/57/20 40/58/20 39/59/20
f 37/60/21 38/25/21 34/41/21 33/61/21
f 35/55/13 39/62/13 37/37/13 33/54/13
f 34/41/22 38/25/22 52/63/22 49/64/22
f 44/53/23 43/52/23 55/65/23 56/66/23
f 47/67/24 46/68/24 58/69/24 59/70/24
f 50/52/25 49/71/25 61/66/25 62/65/25
f 24/26/26 20/25/26 42/68/26 43/72/26
f 40/58/27 36/57/27 50/73/27 51/74/27
f 20/38/28 18/38/28 41/38/28 42/38/28
f 36/29/29 34/30/29 49/71/29 50/52/29
f 26/34/30 30/48/30 48/75/30 45/76/30
f 30/45/31 32/44/31 47/77/31 48/71/31
f 32/41/32 28/40/32 46/68/32 47/67/32
f 28/38/33 26/38/33 45/38/33 46/38/33
f 18/34/34 22/33/34 44/78/34 41/74/34
f 60/79/35 59/80/35 71/81/35 72/82/35
f 63/83/36 62/84/36 74/85/36 75/86/36
f 56/66/37 55/65/37 67/87/37 68/88/37
f 51/74/38 50/73/38 62/84/38 63/83/38
f 48/71/39 47/77/39 59/80/39 60/79/39
f 41/74/40 44/78/40 56/89/40 53/83/40
f 52/38/14 51/38/14 63/38/14 64/38/14
f 42/38/28 41/38/28 53/38/28 54/38/28
f 45/76/41 48/75/41 60/90/41 57/83/41
f 46/38/33 45/38/33 57/38/33 58/38/33
f 49/64/42 52/63/42 64/91/42 61/92/42
f 43/72/43 42/68/43 54/91/43 55/93/43
f 69/94/44 72/95/44 84/96/44 81/97/44
f 66/38/28 65/38/28 77/38/28 78/38/28
f 76/38/14 75/38/14 87/38/14 88/38/14
f 53/83/45 56/89/45 68/85/45 65/98/45
f 64/38/14 63/38/14 75/38/14 76/38/14
f 54/38/28 53/38/28 65/38/28 66/38/28
f 57/83/46 60/90/46 72/95/46 69/94/46
f 58/38/33 57/38/33 69/38/33 70/38/33
f 61/92/47 64/91/47 76/99/47 73/100/47
f 55/93/48 54/91/48 66/101/48 67/102/48
f 62/65/49 61/66/49 73/103/49 74/104/49
f 59/70/50 58/69/50 70/105/50 71/100/50
f 88/38/14 87/38/14 99/38/14 100/38/14
f 77/106/51 80/107/51 92/108/51 89/109/51
f 84/110/52 83/111/52 95/112/52 96/113/52
f 70/38/33 69/38/33 81/38/33 82/38/33
f 73/100/53 76/99/53 88/114/53 85/115/53
f 67/102/54 66/101/54 78/116/54 79/117/54
f 74/104/55 73/103/55 85/118/55 86/119/55
f 71/100/56 70/105/56 82/120/56 83/121/56
f 68/88/57 67/87/57 79/122/57 80/123/57
f 75/86/58 74/85/58 86/124/58 87/106/58
f 72/82/59 71/81/59 83/111/59 84/110/59
f 65/98/60 68/85/60 80/107/60 77/106/60
f 91/125/9 90/126/9 89/127/9 92/128/9
f 95/112/9 94/129/9 93/130/9 96/113/9
f 99/131/9 98/132/9 97/133/9 100/134/9
f 78/38/28 77/38/28 89/38/28 90/38/28
f 81/97/61 84/96/61 96/135/61 93/109/61
f 82/38/33 81/38/33 93/38/33 94/38/33
f 85/115/62 88/114/62 100/136/62 97/137/62
f 79/117/63 78/116/63 90/138/63 91/139/63
f 86/119/64 85/118/64 97/133/64 98/132/64
f 83/121/65 82/120/65 94/140/65 95/141/65
f 80/123/66 79/122/66 91/125/66 92/128/66
f 87/106/67 86/124/67 98/142/67 99/143/67
f 116/144/68 115/145/69 122/146/70 129/147/71
f 101/145/72 103/144/73 106/148/74 104/149/75
f 104/150/76 105/148/77 102/151/78 101/152/79
f 104/150/80 108/148/81 111/151/82 109/152/83
f 113/153/84 114/154/84 128/155/84 127/156/84
f 109/145/85 110/144/86 107/148/87 104/149/88
f 101/152/89 102/151/90 119/157/91 118/158/92
f 112/145/93 114/144/94 105/148/95 104/149/96
f 104/150/97 107/148/98 113/151/99 112/152/100
f 104/150/101 106/148/102 117/151/103 115/152/104
f 114/144/105 112/145/106 126/146/107 128/147/108
f 115/145/109 116/144/110 108/148/111 104/149/112
f 127/157/113 143/159/113 133/160/114 126/158/115
f 149/161/116 137/162/116 129/147/117 145/163/116
f 121/164/13 129/165/13 137/166/13 135/167/13
f 115/152/118 117/151/119 121/157/120 122/158/121
f 109/152/122 111/151/123 123/157/124 125/158/125
f 103/144/126 101/145/127 118/146/128 120/147/129
f 102/153/130 103/154/130 120/155/130 119/156/130
f 111/153/131 110/154/131 124/155/131 123/156/131
f 112/152/132 113/151/133 127/157/134 126/158/135
f 117/153/136 116/154/136 129/155/136 121/156/136
f 110/144/137 109/145/138 125/146/139 124/147/140
f 102/153/141 105/168/142 106/169/143 103/154/144
f 139/163/145 147/161/145 135/162/145 120/147/145
f 140/159/146 121/157/146 135/162/146 147/161/146
f 119/170/13 120/171/13 135/167/13 134/172/13
f 119/157/147 134/162/147 146/161/147 138/159/147
f 148/161/148 143/159/148 127/157/148 136/162/148
f 127/173/13 128/174/13 134/172/13 136/175/13
f 144/163/149 146/161/149 134/162/149 128/147/149
f 126/146/150 133/176/151 144/163/152 128/147/153
f 118/146/154 130/176/155 139/163/156 120/147/157
f 123/177/13 124/178/13 136/175/13 137/166/13
f 122/146/158 131/176/159 145/163/160 129/147/161
f 131/160/162 140/159/163 153/179/164 154/180/165
f 133/160/166 143/159/167 159/179/168 158/180/169
f 132/160/170 141/159/171 155/179/172 157/180/173
f 138/181/174 139/182/174 152/183/174 151/184/174
f 145/185/9 140/186/9 147/187/9 149/188/9
f 144/189/9 143/190/9 148/191/9 146/192/9
f 139/193/9 138/194/9 146/192/9 147/187/9
f 142/195/9 141/196/9 149/188/9 148/191/9
f 149/161/175 141/159/175 123/157/176 137/162/175
f 122/158/177 121/157/178 140/159/179 131/160/180
f 125/158/181 123/157/182 141/159/183 132/160/184
f 119/157/185 138/159/185 130/160/186 118/158/187
f 136/162/188 124/147/188 142/163/188 148/161/188
f 108/168/189 107/169/190 110/154/191 111/153/192
f 125/146/193 132/176/194 142/163/195 124/147/196
f 150/197/197 151/184/197 152/183/197
f 157/198/198 155/199/198 156/200/198
f 158/201/199 159/202/199 160/203/199
f 154/201/200 153/184/200 161/204/200
f 140/181/201 145/205/201 161/204/201 153/184/201
f 143/182/202 144/206/202 160/203/202 159/202/202
f 141/207/203 142/182/203 156/200/203 155/199/203
f 145/163/204 131/176/205 154/208/206 161/209/207
f 130/160/208 138/159/209 151/179/210 150/180/211
f 144/163/212 133/176/213 158/208/214 160/209/215
f 142/163/216 132/176/217 157/208/218 156/209/219
f 139/163/220 130/176/221 150/208/222 152/209/223
f 113/153/224 107/168/225 105/169/226 114/154/227
f 108/169/228 116/154/229 117/153/230 106/168/231
f 105/210/9 107/211/232 108/212/233 106/213/234
f 134/172/13 135/167/13 137/166/13 136/175/13
f 146/214/9 148/215/9 149/216/9 147/217/9
